<svg width="347" height="347" viewBox="0 0 347 347" fill="none" xmlns="http://www.w3.org/2000/svg">
<path fill-rule="evenodd" clip-rule="evenodd" d="M276.969 34.2153C290.58 44.3435 302.657 56.4198 312.785 70.0316L276.969 34.2153ZM271.972 30.6326C264.117 25.2083 255.793 20.4151 247.072 16.3262L330.674 99.9276C326.585 91.2076 321.792 82.8835 316.368 75.0286L271.972 30.6326ZM331.197 245.948C330.091 248.35 328.932 250.723 327.721 253.065L93.9351 19.2788C96.277 18.0681 98.65 16.9092 101.053 15.8036L331.197 245.948ZM86.1875 23.5381C88.4286 22.2305 90.7016 20.9716 93.0051 19.7631L327.237 253.995C326.028 256.298 324.77 258.572 323.462 260.813L86.1875 23.5381ZM346.315 189.024C346.032 192.213 345.663 195.376 345.21 198.513L148.488 1.78974C151.624 1.33688 154.787 0.967924 157.976 0.685207L346.315 189.024ZM138.27 3.57918C141.238 2.96697 144.234 2.43058 147.256 1.97212L345.028 199.744C344.57 202.766 344.033 205.762 343.421 208.73L138.27 3.57918ZM341.124 218.44C341.877 215.62 342.562 212.773 343.176 209.899L137.101 3.8245C134.227 4.43802 131.38 5.1227 128.561 5.87662L341.124 218.44ZM127.448 6.17816C124.707 6.93086 121.993 7.74911 119.308 8.63111L338.369 227.692C339.251 225.007 340.069 222.293 340.822 219.552L127.448 6.17816ZM345.529 150.803C344.967 146.504 344.248 142.254 343.377 138.059L208.941 3.62288C204.746 2.75225 200.496 2.03307 196.197 1.47131L345.529 150.803ZM194.579 1.26765C190.747 0.803586 186.877 0.464418 182.973 0.254335L346.746 164.027C346.536 160.123 346.197 156.253 345.732 152.421L194.579 1.26765ZM227.214 8.47505C233.107 10.3919 238.862 12.6156 244.459 15.1274L331.873 102.541C334.384 108.138 336.608 113.893 338.525 119.786L227.214 8.47505ZM85.2967 24.0615C83.0876 25.3682 80.91 26.7224 78.7653 28.1229L318.877 268.235C320.278 266.09 321.632 263.913 322.939 261.703L85.2967 24.0615ZM110.473 11.8028C113.035 10.8034 115.627 9.86315 118.247 8.98369L338.016 228.754C337.137 231.373 336.197 233.965 335.197 236.527L110.473 11.8028ZM173.5 0.00012207C176.176 0.00012207 178.838 0.0607159 181.485 0.180606L346.82 165.515C346.939 168.162 347 170.824 347 173.5C347 174.424 346.993 175.346 346.978 176.267L170.733 0.0217333C171.654 0.00734359 172.576 0.00012207 173.5 0.00012207ZM225.14 7.81474C220.423 6.34604 215.619 5.07326 210.738 4.00591L342.994 136.262C341.927 131.381 340.654 126.578 339.185 121.86L225.14 7.81474ZM102.024 15.3604C104.472 14.252 106.951 13.1988 109.458 12.2024L334.798 237.542C333.801 240.049 332.748 242.528 331.64 244.977L102.024 15.3604ZM159.279 0.57454C162.609 0.304399 165.966 0.128289 169.346 0.0488674L346.951 177.654C346.872 181.034 346.696 184.391 346.426 187.721L159.279 0.57454ZM318.316 269.088L77.9119 28.6837C75.7938 30.0846 73.7081 31.5308 71.6564 33.0208L313.979 275.344C315.469 273.292 316.915 271.206 318.316 269.088ZM313.382 276.161L70.8392 33.6179C68.8092 35.1103 66.8129 36.6457 64.8516 38.223L308.777 282.149C310.354 280.187 311.89 278.191 313.382 276.161ZM308.145 282.93L64.0698 38.8554C62.126 40.4371 60.2172 42.06 58.3446 43.7229L303.277 288.656C304.94 286.783 306.563 284.874 308.145 282.93ZM302.61 289.403C300.94 291.261 299.231 293.084 297.484 294.869L52.1313 49.5166C53.9163 47.7691 55.7388 46.0598 57.5975 44.3901L302.61 289.403ZM296.782 295.581C295.025 297.356 293.23 299.092 291.398 300.79L46.2103 55.6025C47.9079 53.7706 49.6444 51.9754 51.4188 50.2182L296.782 295.581ZM203.029 344.497C206.002 343.988 208.949 343.402 211.868 342.743L4.25677 135.132C3.59783 138.051 3.01248 140.998 2.50276 143.971L203.029 344.497ZM4.5206 133.982L213.018 342.48C215.848 341.82 218.652 341.092 221.427 340.296L6.70437 125.573C5.90843 128.348 5.17988 131.152 4.5206 133.982ZM7.02264 124.477C7.81683 121.776 8.67497 119.102 9.59533 116.457L230.543 337.405C227.898 338.325 225.224 339.183 222.523 339.977L7.02264 124.477ZM201.818 344.701C198.738 345.206 195.63 345.631 192.497 345.972L1.02808 154.503C1.36925 151.37 1.79383 148.263 2.29954 145.182L201.818 344.701ZM179.985 346.881C177.833 346.96 175.671 347 173.5 347C172.151 347 170.806 346.985 169.465 346.954L0.0459945 177.535C0.0153868 176.194 0 174.849 0 173.5C0 171.329 0.0398806 169.167 0.118949 167.015L179.985 346.881ZM181.344 346.826L0.174149 165.656C0.321697 162.34 0.562335 159.048 0.893513 155.783L191.217 346.107C187.952 346.438 184.66 346.678 181.344 346.826ZM0.0851563 178.988L168.012 346.915C164.21 346.797 160.438 346.556 156.701 346.197L0.802802 190.299C0.443788 186.562 0.203305 182.791 0.0851563 178.988ZM142.787 344.29C146.854 345.017 150.969 345.601 155.129 346.039L0.961083 191.871C1.39883 196.031 1.98354 200.146 2.70994 204.213L142.787 344.29ZM9.96322 115.411L231.589 337.037C234.173 336.119 236.727 335.142 239.253 334.107L12.8927 107.748C11.8579 110.273 10.8808 112.828 9.96322 115.411ZM17.0239 98.4576C18.1628 96.087 19.354 93.7463 20.596 91.437L255.563 326.404C253.254 327.646 250.913 328.837 248.543 329.976L17.0239 98.4576ZM24.9603 83.7944C23.6228 86.0044 22.3332 88.2466 21.093 90.5197L256.48 325.907C258.753 324.667 260.996 323.377 263.206 322.04L24.9603 83.7944ZM16.5674 99.4153L247.585 330.433C245.171 331.574 242.727 332.662 240.253 333.694L13.3064 106.747C14.3383 104.274 15.4258 101.829 16.5674 99.4153ZM25.4958 82.9156L264.085 321.504C266.264 320.167 268.412 318.784 270.527 317.354L29.6458 76.4729C28.2166 78.5877 26.8328 80.7357 25.4958 82.9156ZM30.2182 75.6311L271.369 316.782C273.459 315.352 275.516 313.877 277.539 312.359L34.6413 69.4614C33.1233 71.4842 31.6485 73.5412 30.2182 75.6311ZM35.2496 68.6556L278.345 311.75C280.347 310.23 282.315 308.666 284.248 307.062L39.9386 62.7519C38.334 64.6848 36.7706 66.6532 35.2496 68.6556ZM40.5821 61.9812C42.1919 60.0645 43.8423 58.1832 45.5322 56.3385L290.662 301.468C288.817 303.158 286.936 304.808 285.019 306.418L40.5821 61.9812ZM3.0286 205.946L141.054 343.972C136.388 343.089 131.787 342.019 127.261 340.771L6.22954 219.739C4.98106 215.213 3.91139 210.612 3.0286 205.946ZM6.78562 221.71L125.29 340.214C119.798 338.629 114.418 336.78 109.164 334.681L12.3195 237.836C10.2206 232.582 8.37107 227.202 6.78562 221.71ZM13.2951 240.226C16.352 247.557 19.8974 254.633 23.8907 261.414L85.5858 323.109C92.3668 327.103 99.4431 330.648 106.774 333.705L13.2951 240.226ZM26.0593 264.997C40.1562 287.665 59.335 306.844 82.003 320.941L26.0593 264.997Z" fill="url(#paint0_linear_23_163)" fill-opacity="0.5"/>
<defs>
<linearGradient id="paint0_linear_23_163" x1="45.11" y1="65.6147" x2="285.486" y2="299.051" gradientUnits="userSpaceOnUse">
<stop stop-color="#FC7948"/>
<stop offset="0.513542" stop-color="#5C9AF3"/>
<stop offset="1" stop-color="#B3B3B3"/>
</linearGradient>
</defs>
</svg>
